<?xml version="1.0" encoding="utf-8"?>
<!-- Generator: Adobe Illustrator 21.1.0, SVG Export Plug-In . SVG Version: 6.00 Build 0)  -->
<svg version="1.1" id="Layer_1" xmlns="http://www.w3.org/2000/svg" xmlns:xlink="http://www.w3.org/1999/xlink" x="0px" y="0px"
	 viewBox="0 0 108 108" width="108" height="108" style="enable-background:new 0 0 108 108;" xml:space="preserve">
<style type="text/css">
	.st0{fill:#FFFFFF;}
</style>
<path class="st0" d="M54,0C24.2,0,0,24.2,0,54s24.2,54,54,54s54-24.2,54-54S83.8,0,54,0z M92.8,22.5c-1.5,0.2-3,0.5-4.5,0.9
	c-0.9,0.2-1.9,0.5-2.8,0.7C66.2,29.8,53.3,46.5,50,62.3c0,0.2-0.1,0.5-0.1,0.7c-3.9-0.7-7.7-1.6-11.5-2.7
	c3.2-23,13.4-44.2,28.3-54.6C77,8.4,86.1,14.3,92.8,22.5z M54,4c2.1,0,4.1,0.1,6.2,0.4l-1.1,0.8c-13.4,12-22.6,31.9-25.7,53.5
	c-1.9-0.7-3.7-1.4-5.5-2.1c0.1-0.3,0.2-0.5,0.2-0.8C31,44.5,28,32,24.5,19.6c-0.5-1.6-0.9-3.2-1.4-4.9C31.9,7.8,42.8,4,54,4z
	 M19,18.3c0.5,1.9,1.1,3.7,1.6,5.5c3,11,5.1,21.4,2.8,30.6c-4.6-2.2-9-4.9-13.2-7.9c-1.7-1.2-3.3-2.5-4.9-3.8
	C7.4,33.4,12.2,25,19,18.3z M4.3,48.3c1.7,1.3,3.4,2.6,5.2,3.8c3.9,2.7,8.1,5.1,12.4,7.1c-2.1,6.2-5.2,11.3-8.8,14.7
	c-1.1,1.1-2.3,2-3.7,2.8C5,68,3.2,58.1,4.3,48.3z M12,81.2c1.2-0.7,2.3-1.5,3.4-2.4c4.6-4,8.5-10,11.1-17.4c2.1,0.9,4.2,1.7,6.3,2.4
	c-1,10.3-0.6,20.7,1.2,30.9c0.1,0.3,0.2,0.5,0.2,0.9c0.3,1.5,0.6,2.9,1,4.4c0,0.1,0.1,0.3,0.1,0.4C25.7,96.5,17.6,89.8,12,81.2z
	 M43.7,102.9c-0.9-0.2-1.8-0.4-2.7-0.6c-0.4-1.5-0.8-3-1.2-4.5c-0.2-1-0.4-1.9-0.6-2.9c-1.9-9.8-2.3-19.7-1.4-29.6
	c3.8,1.1,7.6,2,11.5,2.7c-0.5,8.8,2.4,16.9,8.4,24c2.1,2.5,4.4,4.7,7,6.7c1.3,1,2.7,2,4.2,3C60.8,104.2,52.1,104.7,43.7,102.9z
	 M74.7,99.5c-1.5-0.9-2.9-1.7-4.2-2.6c-2.9-2-5.6-4.3-8-6.8c-6.7-7.2-8.5-14.8-8.3-21.2c6.5,0.9,13.1,1.4,19.6,1.4
	c3.2,0,6.5-0.1,9.8-0.3c4.6-0.3,9.2-0.8,14-1.4c1.5-0.2,2.9-0.4,4.4-0.7C98.1,81.8,88.1,93.4,74.7,99.5z M99.1,63.1
	c-4.4,0.7-8.8,1.2-13,1.6c-10.4,0.9-20.9,0.6-31.2-0.8l0.1-0.5c3.7-16.5,16-29.8,32.2-34.7c1.5-0.4,3-0.8,4.5-1.1
	c1.4-0.3,2.9-0.5,4.4-0.6c6.7,10.5,9.3,23.1,7.2,35.4C101.9,62.6,100.5,62.9,99.1,63.1z"/>
</svg>
