<?xml version="1.0" encoding="utf-8"?>
<!-- Generator: Adobe Illustrator 22.0.1, SVG Export Plug-In . SVG Version: 6.00 Build 0)  -->
<svg version="1.1" id="Layer_1" xmlns="http://www.w3.org/2000/svg" xmlns:xlink="http://www.w3.org/1999/xlink" x="0px" y="0px"
	 viewBox="0 0 108 108"  width="108" height="108" style="enable-background:new 0 0 108 108;" xml:space="preserve">
<style type="text/css">
	.st0{fill:#FF860D;}
	.st1{fill:#FF5608;}
	.st2{fill:#FFCA3B;}
	.st3{fill:#E83A08;}
</style>
<circle class="st0" cx="54" cy="54" r="54"/>
<g id="Layer_2_1_">
	<g id="Layer_1-2">
		<path class="st0" d="M76,103.3c-2.7,1.2-5.4,2.2-8.2,2.9C70.6,105.5,73.3,104.5,76,103.3z"/>
		<path class="st0" d="M79.8,101.4c-0.5,0.2-0.9,0.5-1.4,0.7C78.9,101.9,79.4,101.7,79.8,101.4z"/>
		<path class="st0" d="M83.9,99l-1.1,0.7L83.9,99z"/>
		<path class="st0" d="M77.8,102.4c-0.5,0.3-1.1,0.5-1.6,0.8C76.7,103,77.3,102.7,77.8,102.4z"/>
		<path class="st0" d="M81.8,100.3l-1.2,0.7L81.8,100.3z"/>
		<path class="st0" d="M85.8,97.6c-0.3,0.2-0.6,0.4-0.9,0.6C85.3,98,85.6,97.8,85.8,97.6z"/>
		<path class="st0" d="M92.5,91.8c-0.4,0.4-0.7,0.7-1.1,1.1C91.8,92.6,92.1,92.2,92.5,91.8z"/>
		<path class="st0" d="M67.5,106.3c-0.6,0.2-1.2,0.3-1.9,0.4C66.3,106.6,66.9,106.4,67.5,106.3z"/>
		<path class="st0" d="M90.5,93.8l-0.8,0.8L90.5,93.8z"/>
		<path class="st0" d="M87.8,96.1c-0.2,0.1-0.4,0.3-0.5,0.4C87.4,96.4,87.6,96.3,87.8,96.1z"/>
		<path class="st0" d="M28.1,6.6l1.4-0.7L28.1,6.6z"/>
		<path class="st0" d="M42.8,1.2C43.4,1.1,44,1,44.5,0.8C44,1,43.4,1.1,42.8,1.2z"/>
		<path class="st0" d="M45.3,0.7c0.5-0.1,1-0.2,1.6-0.2C46.3,0.5,45.8,0.6,45.3,0.7z"/>
		<path class="st0" d="M10.2,46.5c4.1,3,8.5,5.7,13.2,7.9c2.3-9.2,0.2-19.6-2.8-30.6c-3.9,4.7-6.8,10.1-8.7,15.9
			C11.1,41.9,10.6,44.2,10.2,46.5z"/>
		<path class="st0" d="M34,94.6c-1.9-10.2-2.3-20.6-1.2-30.9c-2.2-0.7-4.3-1.5-6.3-2.4c-2.6,7.5-6.5,13.5-11.1,17.4
			c4.6,8.7,11.5,16,19.8,21.2c-0.4-1.4-0.7-2.9-1-4.4L34,94.6z"/>
		<path class="st0" d="M13.1,74c3.6-3.5,6.6-8.6,8.8-14.7c-4.3-2.1-8.5-4.4-12.4-7.1C9.1,59.6,10.3,67.1,13.1,74z"/>
		<path class="st0" d="M54,0C54.7,0,55.3,0,56,0C55.3,0,54.7,0,54,0z"/>
		<path class="st0" d="M47.8,0.4l1.4-0.1L47.8,0.4z"/>
		<path class="st0" d="M56.8,0.1c0.7,0,1.5,0.1,2.2,0.2C58.3,0.2,57.5,0.1,56.8,0.1z"/>
		<path class="st0" d="M50.7,0.1l1-0.1L50.7,0.1z"/>
		<path class="st0" d="M59.5,0.3c0.9,0.1,1.7,0.2,2.5,0.3C61.2,0.5,60.4,0.4,59.5,0.3z"/>
		<path class="st0" d="M17.5,14.2c0.3-0.2,0.6-0.5,0.8-0.8C18,13.7,17.8,14,17.5,14.2z"/>
		<path class="st0" d="M22.1,10.4c0.3-0.2,0.6-0.4,0.9-0.6C22.7,10,22.4,10.2,22.1,10.4z"/>
		<path class="st0" d="M24.5,19.6C28,32,31,44.5,28.2,55.7c-0.1,0.3-0.1,0.5-0.2,0.8c1.8,0.8,3.6,1.5,5.5,2.1
			c3.1-21.6,12.2-41.5,25.7-53.4C46.2,5.6,33.9,10.7,24.5,19.6z"/>
		<path class="st0" d="M15.4,16.2c0.4-0.4,0.7-0.8,1.1-1.1C16.2,15.4,15.8,15.8,15.4,16.2z"/>
		<path class="st0" d="M26.1,7.8L27.3,7L26.1,7.8z"/>
		<path class="st0" d="M32,4.7c2.7-1.2,5.4-2.2,8.3-2.9C37.5,2.5,34.7,3.5,32,4.7z"/>
		<path class="st0" d="M13.7,18.1l1.2-1.4C14.5,17.2,14.1,17.6,13.7,18.1z"/>
		<path class="st0" d="M24.1,9l1.1-0.7L24.1,9z"/>
		<path class="st0" d="M40.4,1.7c0.6-0.2,1.2-0.3,1.9-0.5C41.7,1.4,41.1,1.6,40.4,1.7z"/>
		<path class="st0" d="M30.2,5.6l1.6-0.8L30.2,5.6z"/>
		<path class="st0" d="M96.2,20.3l0.2,0.2L96.2,20.3z"/>
		<path class="st0" d="M101.7,28.7c0.1,0.1,0.1,0.2,0.1,0.2C101.8,28.9,101.7,28.8,101.7,28.7z"/>
		<path class="st0" d="M107.7,59.2c0,0.2,0,0.3,0,0.5C107.7,59.5,107.7,59.4,107.7,59.2z"/>
		<path class="st0" d="M70.4,2.6l0.4,0.2L70.4,2.6z"/>
		<path class="st0" d="M67.7,1.8L68.3,2L67.7,1.8z"/>
		<path class="st0" d="M62.3,0.7c0.9,0.1,1.8,0.3,2.8,0.5C64.2,1,63.2,0.8,62.3,0.7z"/>
		<path class="st0" d="M73,3.4l0.2,0.1L73,3.4z"/>
		<path class="st0" d="M107.4,61.8c0,0.2,0,0.4-0.1,0.6C107.4,62.2,107.4,62,107.4,61.8z"/>
		<path class="st0" d="M100.6,26.7c-0.9-1.5-1.8-3-2.9-4.4c0.5,0.7,1,1.4,1.5,2.2C99.7,25.2,100.1,26,100.6,26.7z"/>
		<path class="st0" d="M96,88l-1.3,1.6L96,88z"/>
		<path class="st0" d="M87.2,28.7C71,33.6,58.7,46.9,54.9,63.4l-0.1,0.5c10.4,1.4,20.8,1.7,31.2,0.8c0.7-1.7,1.2-3.4,1.7-5.2
			C90.4,49.4,90.2,38.7,87.2,28.7z"/>
		<path class="st0" d="M49.3,68c-3.9-0.7-7.7-1.6-11.5-2.7c-1,9.9-0.5,19.8,1.4,29.6C45.5,95,51.7,94,57.7,92
			C51.7,84.9,48.8,76.7,49.3,68z"/>
		<path class="st0" d="M65.1,106.8l-1.7,0.3L65.1,106.8z"/>
		<path class="st0" d="M106.3,67.6c-0.1,0.4-0.2,0.7-0.3,1.1C106.1,68.3,106.2,67.9,106.3,67.6z"/>
		<path class="st0" d="M105.6,69.9c-0.2,0.5-0.3,0.9-0.5,1.4C105.3,70.9,105.4,70.4,105.6,69.9z"/>
		<path class="st0" d="M104.1,74.2c-2,4.9-4.7,9.5-8,13.6C99.4,83.7,102.1,79.1,104.1,74.2z"/>
		<path class="st0" d="M104.8,72.2c-0.2,0.6-0.4,1.1-0.6,1.7C104.4,73.3,104.6,72.7,104.8,72.2z"/>
		<path class="st0" d="M20.2,11.9l0.6-0.4L20.2,11.9z"/>
		<path class="st0" d="M1.7,40.4c0.1-0.4,0.2-0.7,0.3-1.1C2,39.7,1.8,40.1,1.7,40.4z"/>
		<path class="st0" d="M45.7,107.4c-0.9-0.1-1.8-0.3-2.8-0.5C43.8,107,44.7,107.2,45.7,107.4z"/>
		<path class="st0" d="M40.2,106.2l-0.6-0.2L40.2,106.2z"/>
		<path class="st0" d="M0,51.3c0-0.1,0-0.1,0-0.2C0,51.1,0,51.2,0,51.3z"/>
		<path class="st0" d="M2.4,38.1c0.1-0.5,0.3-1,0.5-1.4C2.7,37.1,2.5,37.6,2.4,38.1z"/>
		<path class="st0" d="M37.6,105.4c-0.2,0-0.3-0.1-0.4-0.1C37.3,105.4,37.4,105.4,37.6,105.4z"/>
		<path class="st0" d="M0.5,46.2c0-0.2,0.1-0.4,0.1-0.6C0.6,45.8,0.6,46,0.5,46.2z"/>
		<path class="st0" d="M10.2,85.7c-0.5-0.7-1-1.4-1.4-2.1C9.3,84.3,9.7,85,10.2,85.7z"/>
		<path class="st0" d="M35,104.6l-0.2-0.1L35,104.6z"/>
		<path class="st0" d="M48.4,107.7c-0.9-0.1-1.7-0.2-2.5-0.3C46.7,107.5,47.6,107.6,48.4,107.7z"/>
		<path class="st0" d="M83.7,69.8c-3.3,0.2-6.6,0.3-9.8,0.3c-6.6,0-13.1-0.4-19.6-1.4c-0.2,6.5,1.6,14,8.3,21.2
			C71.6,85.8,79.1,78.7,83.7,69.8z"/>
		<path class="st0" d="M11.8,87.7l-0.2-0.2L11.8,87.7z"/>
		<path class="st0" d="M0.2,48.8v-0.5V48.8z"/>
		<path class="st0" d="M93.1,91.3c0.4-0.4,0.8-0.9,1.2-1.3C93.9,90.4,93.5,90.8,93.1,91.3z"/>
		<path class="st0" d="M60.1,107.7l-1.4,0.1L60.1,107.7z"/>
		<path class="st0" d="M85.5,24c-0.9-2.1-1.9-4.2-3-6.1c2.1,1.6,4,3.4,5.8,5.4c1.5-0.4,3-0.6,4.5-0.9C86.1,14.2,76.9,8.3,66.7,5.6
			C51.8,16.1,41.6,37.3,38.4,60.3c3.8,1.1,7.6,2,11.5,2.7c0-0.2,0.1-0.5,0.1-0.7C53.3,46.5,66.2,29.8,85.5,24z"/>
		<path class="st0" d="M62.7,107.3c-0.5,0.1-1,0.2-1.5,0.2C61.7,107.5,62.2,107.4,62.7,107.3z"/>
		<path class="st0" d="M3.9,33.8c2-4.9,4.7-9.5,8-13.6C8.6,24.3,5.9,28.9,3.9,33.8z"/>
		<path class="st0" d="M12,20c0.4-0.5,0.9-1,1.3-1.6C12.9,19,12.5,19.5,12,20z"/>
		<path class="st0" d="M8.7,83.5c-0.5-0.7-0.9-1.4-1.4-2.2C7.8,82,8.3,82.8,8.7,83.5z"/>
		<path class="st0" d="M51.2,107.9c-0.8,0-1.5-0.1-2.3-0.2C49.7,107.8,50.4,107.9,51.2,107.9z"/>
		<path class="st0" d="M54,108c-0.6,0-1.3,0-1.9,0C52.6,108,53.3,108,54,108z"/>
		<path class="st0" d="M3.1,35.9c0.2-0.6,0.4-1.1,0.6-1.7C3.5,34.7,3.3,35.3,3.1,35.9z"/>
		<path class="st0" d="M57.3,107.9l-0.9,0.1L57.3,107.9z"/>
		<path class="st0" d="M6.3,79.3l-0.1-0.2L6.3,79.3z"/>
		<path class="st1" d="M82.5,17.9c1.1,2,2.1,4,3,6.1c0.9-0.3,1.8-0.5,2.8-0.7C86.5,21.3,84.5,19.5,82.5,17.9z"/>
		<path class="st1" d="M39.8,97.8c1.6,0.5,3.1,0.9,4.7,1.2c3.1,0.7,6.3,1,9.5,1c3.6,0,7.2-0.4,10.7-1.3c-2.6-2-4.9-4.3-7-6.7
			c-6,2-12.2,3-18.5,2.9C39.4,95.9,39.6,96.8,39.8,97.8z"/>
		<path class="st1" d="M92.5,28.9c-0.3-0.4-0.5-0.8-0.8-1.2c-1.5,0.3-3,0.6-4.5,1.1c3,10,3.2,20.7,0.6,30.8c-0.5,1.7-1,3.5-1.7,5.2
			c4.3-0.3,8.6-0.8,13-1.5C101.5,51.3,99.1,39,92.5,28.9z"/>
		<path class="st1" d="M97.7,68.4c-4.7,0.7-9.4,1.1-14,1.4C79,78.7,71.6,85.8,62.6,90c2.4,2.6,5.1,4.9,8,6.8
			C83.4,91.9,93.3,81.4,97.7,68.4z"/>
		<path class="st0" d="M103.3,62.4c2.1-12.3-0.4-24.9-7.2-35.4c-1.5,0.1-3,0.3-4.4,0.6c0.3,0.4,0.6,0.8,0.8,1.2
			c6.6,10.1,9,22.4,6.6,34.3C100.5,62.9,101.9,62.7,103.3,62.4z"/>
		<path class="st0" d="M97.7,68.4c-4.3,13-14.3,23.5-27.1,28.5c1.3,0.9,2.7,1.8,4.2,2.6c13.3-6.1,23.3-17.7,27.3-31.8
			C100.6,68,99.1,68.2,97.7,68.4z"/>
		<path class="st0" d="M44.5,99c-1.6-0.3-3.2-0.8-4.7-1.3c0.4,1.5,0.7,3,1.2,4.5c0.9,0.2,1.8,0.5,2.7,0.6c8.4,1.8,17,1.4,25.2-1.2
			c-1.5-1-2.9-2-4.2-3c-3.5,0.8-7.1,1.3-10.7,1.3C50.8,100,47.7,99.7,44.5,99z"/>
		<path class="st2" d="M54,4C42.8,4,31.9,7.8,23.1,14.7c0.5,1.6,1,3.2,1.4,4.9c9.4-8.8,21.7-13.9,34.6-14.3l1-0.8
			C58.1,4.1,56,4,54,4z"/>
		<path class="st2" d="M10.2,46.5c0.4-2.3,1-4.6,1.7-6.8c1.9-5.8,4.8-11.2,8.7-15.9c-0.5-1.8-1-3.7-1.6-5.5
			C12.2,25,7.4,33.4,5.3,42.6C6.9,44,8.5,45.3,10.2,46.5z"/>
		<path class="st2" d="M13.1,74c-2.8-6.9-4.1-14.4-3.7-21.9c-1.8-1.2-3.5-2.5-5.2-3.8C3.2,58.1,5,68,9.5,76.8
			C10.8,76,12,75.1,13.1,74z"/>
		<path class="st2" d="M15.4,78.7c-1.1,0.9-2.2,1.7-3.4,2.4c5.6,8.7,13.7,15.4,23.3,19.2c0-0.1-0.1-0.3-0.1-0.4
			C26.8,94.7,20,87.4,15.4,78.7z"/>
		<path class="st3" d="M94.6,89.6L96,88l0.1-0.2c3.3-4.1,6-8.7,8-13.6c0-0.1,0.1-0.2,0.1-0.4c0.2-0.6,0.4-1.1,0.6-1.7
			c0.1-0.3,0.2-0.5,0.3-0.8c0.2-0.5,0.3-1,0.5-1.4c0.2-0.4,0.3-0.9,0.4-1.3s0.2-0.7,0.3-1.1c0.2-0.8,0.4-1.6,0.6-2.5
			s0.4-1.8,0.5-2.7c0-0.2,0.1-0.4,0.1-0.6c0.1-0.7,0.2-1.4,0.3-2.1c0-0.2,0-0.3,0-0.5c0.1-0.8,0.1-1.5,0.2-2.3v-0.2
			c0.5-9.6-1.6-19.2-6.1-27.7c0-0.1-0.1-0.2-0.1-0.2c-0.3-0.7-0.7-1.3-1.1-2c-0.4-0.8-0.9-1.5-1.4-2.2c-0.5-0.7-1-1.5-1.5-2.2
			c-0.5-0.7-0.9-1.2-1.4-1.8l-0.2-0.2c-6-7.6-14-13.3-23-16.8L73,3.4c-0.7-0.3-1.4-0.5-2.2-0.7l-0.4-0.2C69.7,2.3,69,2.1,68.3,2
			l-0.6-0.2c-0.9-0.2-1.8-0.4-2.7-0.6c-0.9-0.2-1.8-0.4-2.8-0.5h-0.2c-0.8-0.2-1.7-0.3-2.5-0.4H59c-0.8-0.1-1.5-0.1-2.2-0.2L56,0
			c-0.6,0-1.3,0-1.9,0H54c-0.8,0-1.6,0-2.3,0.1l-1,0.1c-0.5,0-1,0.1-1.5,0.1l-1.4,0.1l-1,0.1c-0.5,0.1-1,0.1-1.6,0.2l-0.8,0.1
			c-0.6,0.1-1.1,0.2-1.7,0.3l-0.5,0.1c-0.6,0.1-1.3,0.3-1.9,0.4h-0.1c-2.8,0.8-5.6,1.7-8.3,2.9l-0.3,0.1l-1.6,0.8l-0.6,0.3l-1.4,0.7
			L27.3,7l-1.2,0.7l-1,0.6l-1,0.7c-0.4,0.2-0.7,0.5-1.1,0.8c-0.4,0.3-0.6,0.4-0.9,0.6c-0.5,0.3-0.9,0.7-1.4,1l-0.6,0.4h-0.1
			c-0.6,0.5-1.2,1-1.8,1.5c-0.3,0.2-0.6,0.5-0.8,0.8s-0.6,0.6-0.9,0.9s-0.8,0.7-1.1,1.1l-0.6,0.5L13.7,18l-0.3,0.4
			c-0.4,0.5-0.9,1-1.3,1.6c0,0-0.1,0.1-0.1,0.2c-3.3,4.1-6,8.7-8,13.6c0,0.1-0.1,0.2-0.1,0.3c-0.2,0.6-0.4,1.1-0.6,1.7
			C3,36,2.9,36.3,2.8,36.5c-0.2,0.5-0.3,1-0.5,1.4S2.1,38.8,2,39.2S1.8,40,1.7,40.3c-0.2,0.8-0.4,1.6-0.6,2.5s-0.4,1.8-0.5,2.7
			c0,0.2-0.1,0.4-0.1,0.6c-0.1,0.7-0.2,1.4-0.3,2.1v0.5c-0.1,0.8-0.2,1.5-0.2,2.3c0,0.1,0,0.1,0,0.2c-0.5,9.6,1.6,19.2,6.1,27.8
			l0.1,0.2c0.4,0.7,0.7,1.4,1.1,2c0.4,0.6,0.9,1.5,1.4,2.2v0.1v0.1c0.5,0.7,1,1.4,1.4,2.1c0.5,0.7,0.9,1.2,1.4,1.9l0.2,0.2
			c6,7.6,14,13.3,23,16.8l0.2,0.1c0.7,0.3,1.4,0.5,2.2,0.7c0.2,0,0.3,0.1,0.4,0.2c0.7,0.2,1.4,0.4,2.1,0.6l0.6,0.2
			c0.9,0.2,1.8,0.4,2.7,0.6c0.9,0.2,1.8,0.4,2.8,0.5h0.2c0.8,0.1,1.7,0.2,2.5,0.3h0.5c0.8,0.1,1.5,0.1,2.3,0.2H52c0.6,0,1.3,0,1.9,0
			H54c0.8,0,1.6,0,2.3,0l0.9-0.1c0.5,0,1-0.1,1.5-0.1l1.4-0.1l1-0.1c0.5-0.1,1-0.2,1.5-0.2l0.8-0.1l1.7-0.3l0.5-0.1
			c0.6-0.1,1.2-0.3,1.9-0.4h0.2c2.8-0.7,5.6-1.7,8.2-2.9l0.3-0.1c0.5-0.2,1.1-0.5,1.6-0.8l0.6-0.3c0.5-0.2,0.9-0.5,1.4-0.7l0.8-0.4
			l1.2-0.7l1-0.6l1.1-0.5l1.1-0.8c0.3-0.2,0.6-0.4,0.9-0.6c0.5-0.4,1-0.7,1.4-1.1c0.2-0.1,0.4-0.3,0.5-0.4l0,0
			c0.6-0.5,1.2-1,1.8-1.5l0.8-0.8c0.3-0.3,0.6-0.6,1-0.9c0.4-0.3,0.7-0.7,1.1-1.1c0.2-0.2,0.4-0.4,0.6-0.6c0.4-0.4,0.8-0.9,1.2-1.3
			L94.6,89.6z M86.1,64.7c-10.4,0.9-20.9,0.6-31.2-0.8l0.1-0.5C58.7,46.9,71,33.6,87.2,28.7c1.5-0.4,3-0.8,4.5-1.1
			c1.4-0.3,2.9-0.5,4.4-0.6c6.7,10.5,9.3,23.1,7.2,35.4c-1.4,0.2-2.8,0.5-4.2,0.7C94.7,63.8,90.3,64.3,86.1,64.7z M64.7,98.7
			c1.3,1,2.7,2,4.2,3c-8.1,2.5-16.8,3-25.2,1.2c-0.9-0.2-1.8-0.4-2.7-0.6c-0.4-1.5-0.8-3-1.2-4.5c-0.2-1-0.4-1.9-0.6-2.9
			c-1.9-9.8-2.3-19.7-1.4-29.6c3.8,1.1,7.6,2,11.5,2.7c-0.5,8.8,2.4,16.9,8.4,24C59.8,94.5,62.1,96.7,64.7,98.7z M59.1,5.2
			C45.7,17.2,36.5,37.1,33.4,58.7c-1.9-0.7-3.7-1.4-5.5-2.1c0.1-0.3,0.2-0.5,0.2-0.8C31,44.5,28,32,24.5,19.6
			c-0.5-1.6-0.9-3.2-1.4-4.9C31.9,7.8,42.8,4,54,4c2.1,0,4.1,0.1,6.2,0.4L59.1,5.2z M34.2,95.6c0.3,1.5,0.6,2.9,1,4.4
			c0,0.1,0.1,0.3,0.1,0.4C25.7,96.5,17.6,89.8,12,81.2c1.2-0.7,2.3-1.5,3.4-2.4c4.6-4,8.5-10,11.1-17.4c2.1,0.9,4.2,1.7,6.3,2.4
			c-1,10.3-0.6,20.7,1.2,30.9C34.1,95,34.2,95.2,34.2,95.6z M4.3,48.3c1.7,1.3,3.4,2.6,5.2,3.8c3.9,2.7,8.1,5.1,12.4,7.1
			c-2.1,6.2-5.2,11.3-8.8,14.7c-1.1,1.1-2.3,2-3.7,2.8C5,68,3.2,58.1,4.3,48.3z M19,18.3c0.5,1.9,1.1,3.7,1.6,5.5
			c3,11,5.1,21.4,2.8,30.6c-4.6-2.2-9-4.9-13.2-7.9c-1.7-1.2-3.3-2.5-4.9-3.8C7.4,33.4,12.2,25,19,18.3z M38.4,60.3
			c3.2-23,13.4-44.2,28.3-54.6c10.3,2.7,19.4,8.6,26.1,16.8c-1.5,0.2-3,0.5-4.5,0.9c-0.9,0.2-1.9,0.5-2.8,0.7
			C66.2,29.8,53.3,46.5,50,62.3c0,0.2-0.1,0.5-0.1,0.7C46,62.3,42.2,61.4,38.4,60.3z M74.7,99.5c-1.5-0.9-2.9-1.7-4.2-2.6
			c-2.9-2-5.6-4.3-8-6.8c-6.7-7.2-8.5-14.8-8.3-21.2c6.5,0.9,13.1,1.4,19.6,1.4c3.2,0,6.5-0.1,9.8-0.3c4.6-0.3,9.2-0.8,14-1.4
			c1.5-0.2,2.9-0.4,4.4-0.7C98.1,81.8,88.1,93.4,74.7,99.5z"/>
	</g>
</g>
</svg>
