<svg xmlns="http://www.w3.org/2000/svg" xmlns:xlink="http://www.w3.org/1999/xlink" width="220" height="179" viewBox="0 0 220 179">
    <defs>
        <path id="a" d="M0 130V80C0 35.817 49.132 0 110 0s110 35.817 110 80v50c0 44.28-71.792 43-110 43S0 174.28 0 130z"/>
        <filter id="b" width="102.7%" height="106.9%" x="-1.4%" y="-1.7%" filterUnits="objectBoundingBox">
            <feMorphology in="SourceAlpha" radius="2.5" result="shadowSpreadOuter1"/>
            <feOffset dy="11" in="shadowSpreadOuter1" result="shadowOffsetOuter1"/>
            <feColorMatrix in="shadowOffsetOuter1" values="0 0 0 0 0.94743835 0 0 0 0 0.860081668 0 0 0 0 0.720148847 0 0 0 1 0"/>
        </filter>
    </defs>
    <g fill="none" fill-rule="evenodd">
        <g>
            <mask id="c" fill="#fff">
                <use xlink:href="#a"/>
            </mask>
            <use fill="#000" filter="url(#b)" xlink:href="#a"/>
            <use fill="#FFF" xlink:href="#a"/>
            <path fill="#F8F1E5" d="M60 149h100l-10 35H70z" mask="url(#c)"/>
            <path stroke="#DADADA" stroke-width="5" d="M60 75h100v74H60z" mask="url(#c)"/>
        </g>
        <path fill="#FF5B18" d="M6 130V80C6 39.588 52.15 6 110 6s104 33.588 104 74v50c0 21.82-21.346 32.687-61.128 35.893-11.514.928-21.101 1.125-39.66 1.109a3359.133 3359.133 0 0 0-6.425 0c-18.558.016-28.145-.18-39.66-1.109C27.347 162.687 6 151.82 6 130zm4 0c0 10.07 4.943 17.026 15.364 22.331 9.92 5.051 24.086 8.125 42.085 9.575 11.373.917 20.882 1.112 39.335 1.096a3361.75 3361.75 0 0 1 6.432 0c18.453.016 27.962-.18 39.335-1.096 18-1.45 32.165-4.524 42.085-9.575C205.057 147.026 210 140.07 210 130V80c0-37.88-44.134-70-100-70S10 42.12 10 80v50z"/>
    </g>
</svg>
