<svg xmlns="http://www.w3.org/2000/svg" xmlns:xlink="http://www.w3.org/1999/xlink" width="58" height="58" viewBox="0 0 58 58">
    <defs>
        <circle id="a" cx="25" cy="25" r="25"/>
        <filter id="b" width="122%" height="122%" x="-11%" y="-11%" filterUnits="objectBoundingBox">
            <feOffset dx="-3" dy="-3" in="SourceAlpha" result="shadowOffsetInner1"/>
            <feComposite in="shadowOffsetInner1" in2="SourceAlpha" k2="-1" k3="1" operator="arithmetic" result="shadowInnerInner1"/>
            <feColorMatrix in="shadowInnerInner1" values="0 0 0 0 1 0 0 0 0 0.612432065 0 0 0 0 0 0 0 0 1 0"/>
        </filter>
        <path id="d" d="M23.007 34.593v-3.595a7.435 7.435 0 0 1-4.838-4.248h-.302a7.581 7.581 0 0 1-7.45-6.177l-.346-1.833a4.12 4.12 0 0 1 4.05-4.885h2.567l-.209-2.411A1.33 1.33 0 0 1 17.803 10h14.395a1.33 1.33 0 0 1 1.325 1.444l-.209 2.411h2.565a4.12 4.12 0 0 1 4.05 4.885l-.346 1.833a7.581 7.581 0 0 1-7.45 6.177h-.3a7.435 7.435 0 0 1-4.838 4.248v3.595h.904c1.432 0 2.69.95 3.084 2.326l.47 1.662a.54.54 0 0 1-.364.664c-.032.01-4.042.01-12.03 0-.294 0-.532-.37-.532-.664 0-.033.164-.587.492-1.662a3.208 3.208 0 0 1 3.084-2.326h.904zM33.06 16.78l-.609 7.034a4.657 4.657 0 0 0 4.257-3.783l.346-1.833a1.196 1.196 0 0 0-1.176-1.418h-2.818zm-16.12 0h-2.82a1.196 1.196 0 0 0-1.176 1.418l.346 1.833a4.657 4.657 0 0 0 4.259 3.783l-.61-7.034z"/>
        <filter id="c" width="106.7%" height="113.7%" x="-3.3%" y="-3.4%" filterUnits="objectBoundingBox">
            <feOffset dy="2" in="SourceAlpha" result="shadowOffsetOuter1"/>
            <feColorMatrix in="shadowOffsetOuter1" values="0 0 0 0 0.985703656 0 0 0 0 0.92504133 0 0 0 0 0.437040404 0 0 0 1 0"/>
        </filter>
    </defs>
    <g fill="none" fill-rule="evenodd">
        <g transform="translate(4 4)">
            <use fill="#FFD30E" xlink:href="#a"/>
            <use fill="#000" filter="url(#b)" xlink:href="#a"/>
            <circle cx="25" cy="25" r="27" stroke="#FFF" stroke-width="4"/>
        </g>
        <g transform="translate(4 4)">
            <use fill="#000" filter="url(#c)" xlink:href="#d"/>
            <use fill="#AF4C00" xlink:href="#d"/>
        </g>
    </g>
</svg>
